<svg viewBox="0 0 28 28" xmlns="http://www.w3.org/2000/svg" xmlns:xlink="http://www.w3.org/1999/xlink"><style>:root&gt;svg{display:none}:root&gt;svg:target{display:block}</style><svg viewBox="0 0 18 18" id="icon-close" xmlns="http://www.w3.org/2000/svg"><path d="M1 1l8 8m8 8L9 9m0 0l8-8M9 9l-8 8"/></svg><svg viewBox="0 0 23 23" id="icon_arrow-d" xmlns="http://www.w3.org/2000/svg"><path d="M22.213 10.607L11.607 21.214m0 0L1 10.607m10.607 10.607V.001"/></svg><svg viewBox="0 0 28 28" id="icon_arrow-hover-color" xmlns="http://www.w3.org/2000/svg"><path fill-rule="evenodd" clip-rule="evenodd" d="M21.172 4H2V0h26v26h-4V6.828L3.414 27.414.586 24.586 21.172 4z"/></svg><svg viewBox="0 0 28 28" id="icon_arrow-hover-white" xmlns="http://www.w3.org/2000/svg"><path fill-rule="evenodd" clip-rule="evenodd" d="M20.586 4H1.414V0h26v26h-4V6.828L2.828 27.414 0 24.586 20.586 4z"/></svg><svg viewBox="0 0 14 15" id="icon_arrow-hover-white-small" xmlns="http://www.w3.org/2000/svg"><path fill-rule="evenodd" clip-rule="evenodd" d="M8.826 3.453H.884v-2.5h12.21v12.21h-2.5V5.221l-8.826 8.826L0 12.279l8.826-8.826z"/></svg><svg viewBox="0 0 8 6" id="icon_arrow-menu" xmlns="http://www.w3.org/2000/svg"><path fill-rule="evenodd" clip-rule="evenodd" d="M0 1.766L1.06.706l2.47 2.469L6 .705l1.06 1.06-3.53 3.531L0 1.766z"/></svg><svg viewBox="0 0 8 12" id="icon_arrow-next" xmlns="http://www.w3.org/2000/svg"><path fill-rule="evenodd" clip-rule="evenodd" d="M1.707 11.707L.293 10.293 4.586 6 .293 1.707 1.707.293 7.414 6l-5.707 5.707z"/></svg><svg viewBox="0 0 8 12" id="icon_arrow-prev" xmlns="http://www.w3.org/2000/svg"><path fill-rule="evenodd" clip-rule="evenodd" d="M6.293.293l1.414 1.414L3.414 6l4.293 4.293-1.414 1.414L.586 6 6.293.293z"/></svg><svg viewBox="0 0 12 24" id="icon_facebook" xmlns="http://www.w3.org/2000/svg"><path d="M3 8H0v4h3v12h5V12h3.6l.4-4H8V6.3C8 5.4 8.2 5 9.1 5H12V0H8.2C4.6 0 3 1.6 3 4.6V8z"/></svg><svg viewBox="0 0 24 24" id="icon_instagram" xmlns="http://www.w3.org/2000/svg"><path d="M12 2.2c3.2 0 3.6 0 4.9.1 3.3.1 4.8 1.7 4.9 4.9.1 1.3.1 1.6.1 4.8 0 3.2 0 3.6-.1 4.8-.1 3.2-1.7 4.8-4.9 4.9-1.3.1-1.6.1-4.9.1-3.2 0-3.6 0-4.8-.1-3.3-.1-4.8-1.7-4.9-4.9-.1-1.3-.1-1.6-.1-4.8 0-3.2 0-3.6.1-4.8C2.4 4 4 2.4 7.2 2.3c1.2-.1 1.6-.1 4.8-.1zM12 0C8.7 0 8.3 0 7.1.1 2.7.3.3 2.7.1 7.1 0 8.3 0 8.7 0 12c0 3.3 0 3.7.1 4.9.2 4.4 2.6 6.8 7 7 1.2.1 1.6.1 4.9.1 3.3 0 3.7 0 4.9-.1 4.4-.2 6.8-2.6 7-7 .1-1.2.1-1.6.1-4.9 0-3.3 0-3.7-.1-4.9-.2-4.4-2.6-6.8-7-7C15.7 0 15.3 0 12 0zm0 5.8c-3.4 0-6.2 2.8-6.2 6.2 0 3.4 2.8 6.2 6.2 6.2 3.4 0 6.2-2.8 6.2-6.2 0-3.4-2.8-6.2-6.2-6.2zM12 16c-2.2 0-4-1.8-4-4s1.8-4 4-4 4 1.8 4 4-1.8 4-4 4zm6.4-11.8c-.8 0-1.4.6-1.4 1.4 0 .8.6 1.4 1.4 1.4.8 0 1.4-.6 1.4-1.4 0-.8-.6-1.4-1.4-1.4z"/></svg><svg viewBox="0 0 24 24" id="icon_search" xmlns="http://www.w3.org/2000/svg"><path d="M21 21l-4.343-4.343m0 0A8 8 0 105.343 5.343a8 8 0 0011.314 11.314z"/></svg><svg viewBox="0 0 27 27" id="icon_search-small-color" xmlns="http://www.w3.org/2000/svg"><path d="M25 25l-5.79-5.79m0 0a10.633 10.633 0 003.123-7.543C22.333 5.776 17.558 1 11.667 1S1 5.776 1 11.667c0 5.89 4.776 10.666 10.667 10.666 2.945 0 5.612-1.194 7.542-3.124z"/></svg><svg viewBox="0 0 18 18" id="icone_arrow-rb" xmlns="http://www.w3.org/2000/svg"><path d="M1 1h16m0 0v16m0-16L1 17"/></svg></svg>